<svg aria-hidden="true" style="position: absolute; width: 0; height: 0; overflow: hidden;" version="1.1" xmlns="http://www.w3.org/2000/svg" xmlns:xlink="http://www.w3.org/1999/xlink">
<defs>
<symbol id="ukraine-1" viewBox="0 0 32 32">
<path fill="#ffda44" style="fill: var(--color1, #ffda44)" d="M16 32c8.837 0 16-7.163 16-16s-7.163-16-16-16-16 7.163-16 16 7.163 16 16 16z"></path>
<path fill="#338af3" style="fill: var(--color2, #338af3)" d="M0 16c0-8.837 7.163-16 16-16s16 7.163 16 16z"></path>
</symbol>
<symbol id="apple" viewBox="0 0 32 32">
<path d="M9.437 31.4c-0.631-0.421-1.191-0.937-1.659-1.533-0.511-0.617-0.984-1.267-1.419-1.939-1.021-1.493-1.82-3.127-2.373-4.848-0.667-2.003-0.991-3.92-0.991-5.796 0-2.093 0.453-3.92 1.336-5.453 0.653-1.2 1.627-2.204 2.8-2.909 1.133-0.707 2.453-1.093 3.787-1.12 0.467 0 0.973 0.067 1.507 0.2 0.387 0.107 0.853 0.28 1.427 0.493 0.733 0.28 1.133 0.453 1.267 0.493 0.427 0.16 0.787 0.227 1.067 0.227 0.213 0 0.52-0.067 0.86-0.173 0.193-0.067 0.56-0.187 1.080-0.413 0.515-0.187 0.923-0.347 1.247-0.467 0.493-0.147 0.971-0.28 1.4-0.347 0.52-0.080 1.036-0.107 1.531-0.067 0.947 0.067 1.813 0.267 2.587 0.56 1.36 0.547 2.457 1.4 3.276 2.613-0.347 0.213-0.667 0.461-0.967 0.733-0.649 0.573-1.2 1.253-1.64 2.007-0.573 1.027-0.867 2.187-0.859 3.36 0.020 1.444 0.387 2.713 1.12 3.813 0.516 0.8 1.205 1.485 2.045 2.048 0.413 0.28 0.776 0.473 1.12 0.6-0.16 0.5-0.336 0.987-0.54 1.467-0.463 1.076-1.013 2.107-1.667 3.080-0.576 0.84-1.029 1.467-1.373 1.88-0.536 0.64-1.053 1.12-1.573 1.463-0.573 0.38-1.247 0.581-1.936 0.581-0.467 0.020-0.933-0.040-1.379-0.169-0.387-0.127-0.768-0.269-1.141-0.431-0.391-0.179-0.795-0.331-1.207-0.453-0.507-0.133-1.027-0.197-1.552-0.196-0.533 0-1.053 0.067-1.547 0.193-0.413 0.117-0.813 0.261-1.209 0.433-0.56 0.233-0.927 0.387-1.14 0.453-0.432 0.128-0.875 0.205-1.32 0.233-0.693 0-1.339-0.2-1.964-0.617zM18.576 6.787c-0.907 0.453-1.768 0.645-2.631 0.581-0.133-0.861 0-1.747 0.36-2.716 0.32-0.827 0.747-1.573 1.333-2.24 0.613-0.693 1.347-1.267 2.173-1.68 0.88-0.453 1.72-0.693 2.52-0.733 0.107 0.907 0 1.8-0.333 2.76-0.304 0.853-0.757 1.64-1.333 2.347-0.58 0.693-1.3 1.267-2.089 1.681z"></path>
</symbol>
<symbol id="close" viewBox="0 0 32 32">
<path stroke-linejoin="round" stroke-linecap="round" stroke-miterlimit="4" stroke-width="2.5" d="M24 8l-16 16M8 8l16 16"></path>
</symbol>
<symbol id="log-in" viewBox="0 0 32 32">
<path stroke-linejoin="round" stroke-linecap="round" stroke-miterlimit="4" stroke-width="3.2" d="M20 4h1.6c2.24 0 3.36 0 4.216 0.435 0.756 0.391 1.357 0.992 1.737 1.726l0.011 0.022c0.437 0.856 0.437 1.976 0.437 4.216v11.2c0 2.24 0 3.36-0.437 4.216-0.391 0.756-0.992 1.356-1.725 1.737l-0.022 0.011c-0.856 0.437-1.976 0.437-4.216 0.437h-1.6M13.333 9.333l6.667 6.667M20 16l-6.667 6.667M20 16h-16"></path>
</symbol>
<symbol id="ellipse" viewBox="0 0 32 32">
<path d="M32 16c0 8.837-7.163 16-16 16s-16-7.163-16-16c0-8.837 7.163-16 16-16s16 7.163 16 16z"></path>
</symbol>
<symbol id="book-open" viewBox="0 0 32 32">
<path stroke-linejoin="round" stroke-linecap="round" stroke-miterlimit="4" stroke-width="3" d="M29.334 8.266c0-1.492 0-2.24-0.292-2.81-0.26-0.504-0.66-0.905-1.149-1.159l-0.015-0.007c-0.572-0.29-1.318-0.29-2.812-0.29h-0.532c-2.988 0-4.48 0-5.622 0.58-1.004 0.512-1.82 1.328-2.33 2.332-0.582 1.14-0.582 2.634-0.582 5.62v15.468l0.134-0.2c0.926-1.39 1.388-2.084 2-2.586 0.542-0.446 1.166-0.78 1.838-0.984 0.756-0.23 1.592-0.23 3.26-0.23h1.834c1.494 0 2.24 0 2.812-0.29 0.5-0.256 0.908-0.664 1.164-1.166 0.292-0.57 0.292-1.318 0.292-2.81v-11.468zM2.666 8.266c0-1.492 0-2.24 0.292-2.81 0.254-0.5 0.662-0.91 1.164-1.166 0.572-0.29 1.318-0.29 2.812-0.29h0.532c2.988 0 4.48 0 5.62 0.58 1.006 0.512 1.82 1.328 2.332 2.332 0.582 1.14 0.582 2.634 0.582 5.62v15.468l-0.134-0.2c-0.926-1.39-1.388-2.084-2-2.586-0.518-0.429-1.131-0.766-1.8-0.974l-0.038-0.010c-0.758-0.23-1.592-0.23-3.26-0.23h-1.834c-1.494 0-2.24 0-2.812-0.29-0.504-0.261-0.904-0.662-1.157-1.151l-0.007-0.015c-0.292-0.57-0.292-1.318-0.292-2.81v-11.468z"></path>
</symbol>
<symbol id="heart" viewBox="0 0 32 32">
<path stroke-linejoin="round" stroke-linecap="round" stroke-miterlimit="4" stroke-width="2.4615" d="M27.787 6.146c-1.327-1.328-3.161-2.149-5.187-2.149s-3.86 0.821-5.187 2.149l-1.413 1.414-1.413-1.414c-1.324-1.306-3.143-2.112-5.15-2.112-4.051 0-7.335 3.284-7.335 7.335 0 2.007 0.806 3.826 2.112 5.15l11.786 11.786 11.787-11.787c1.327-1.327 2.148-3.161 2.148-5.186s-0.821-3.859-2.148-5.186v0z"></path>
</symbol>
<symbol id="log-out" viewBox="0 0 24 24">
<path d="M9 20h-4c-0.276 0-0.525-0.111-0.707-0.293s-0.293-0.431-0.293-0.707v-14c0-0.276 0.111-0.525 0.293-0.707s0.431-0.293 0.707-0.293h4c0.552 0 1-0.448 1-1s-0.448-1-1-1h-4c-0.828 0-1.58 0.337-2.121 0.879s-0.879 1.293-0.879 2.121v14c0 0.828 0.337 1.58 0.879 2.121s1.293 0.879 2.121 0.879h4c0.552 0 1-0.448 1-1s-0.448-1-1-1zM18.586 11h-9.586c-0.552 0-1 0.448-1 1s0.448 1 1 1h9.586l-3.293 3.293c-0.391 0.391-0.391 1.024 0 1.414s1.024 0.391 1.414 0l5-5c0.092-0.092 0.166-0.202 0.217-0.324 0.15-0.362 0.078-0.795-0.217-1.090l-5-5c-0.391-0.391-1.024-0.391-1.414 0s-0.391 1.024 0 1.414z"></path>
</symbol>
</defs>
</svg>
